<?xml version="1.0" encoding="UTF-8"?>
<svg version="1.1" xmlns="http://www.w3.org/2000/svg" width="450" height="450">
<path d="M0 0 C0.74523926 0.21430664 1.49047852 0.42861328 2.25830078 0.64941406 C26.3342563 7.84236098 45.13230882 22.07325622 57.56420898 44.0546875 C68.88601096 65.32491508 78.94624333 93.25403508 74.31640625 117.59375 C73.38801522 120.52145616 72.30833935 123.22229492 71 126 C70.52949219 127.03382813 70.05898437 128.06765625 69.57421875 129.1328125 C66.79479483 134.74911613 66.79479483 134.74911613 65 137 C62.30859375 137.80078125 62.30859375 137.80078125 60 138 C57.09656898 132.30339483 54.26053648 126.5872264 51.57421875 120.78515625 C40.90087194 97.82660971 27.86878424 76.74285363 12 57 C11.28585938 56.08992188 10.57171875 55.17984375 9.8359375 54.2421875 C6.96639887 50.58135073 6.96639887 50.58135073 4 47 C3.67 47 3.34 47 3 47 C4.14275391 48.47146484 4.14275391 48.47146484 5.30859375 49.97265625 C11.80085454 58.42273283 17.69854694 66.96695706 22.97509766 76.22363281 C23.94954804 77.91255635 24.9640303 79.57819556 25.98046875 81.2421875 C46.84170774 115.96927995 55.7265322 155.11098075 59 195 C59.66 195 60.32 195 61 195 C61.24105469 194.43667969 61.48210937 193.87335938 61.73046875 193.29296875 C74.01968184 171.09675926 106.66776131 161.62081925 129 155 C147.09681496 149.85874301 166.25981807 147.95680506 185 147 C155.9633628 142.67539446 130.83967542 146.7732185 103.2980957 156.27001953 C93.51787722 159.6166194 93.51787722 159.6166194 89 160 C88.67 159.67 88.34 159.34 88 159 C88 149.56391307 93.59725761 138.41266683 100.1171875 131.63671875 C118.37663389 115.7638805 143.01785551 108.63931095 167 110 C174.43677051 111.18848506 181.32578212 113.53797254 188 117 C188.75410156 117.38542969 189.50820313 117.77085937 190.28515625 118.16796875 C210.95006785 129.6260742 229.85776057 151.77647591 238 174 C238.03927154 175.9996144 238.04398522 178.00048373 238 180 C237.29093506 179.98428955 236.58187012 179.9685791 235.85131836 179.95239258 C212.59805689 179.50561325 195.55095121 182.50464169 174.9453125 193.09448242 C157.4634961 202.06709271 137.99617681 208.4147279 118.23046875 204.1953125 C105.68586466 199.87984964 98.18181271 190.7325972 91 180 C82.74402243 181.2893951 75.97467478 189.6443458 71.125 195.875 C63.61852249 206.42972509 59.91007512 217.13590238 59.375 230 C59.31699219 231.16208984 59.31699219 231.16208984 59.2578125 232.34765625 C59.16478643 234.23143415 59.08136825 236.11568256 59 238 C59.83950195 237.74605469 60.67900391 237.49210938 61.54394531 237.23046875 C70.20746113 234.67378599 78.86068444 232.64747751 87.75 231 C88.42919495 230.87404449 89.10838989 230.74808899 89.8081665 230.61831665 C149.06624357 219.72693562 211.45804624 219.69704212 270 235 C271.75742857 240.21927914 269.57111468 244.54169501 267.875 249.5625 C267.52026611 250.61445557 267.16553223 251.66641113 266.80004883 252.75024414 C260.06796849 271.96316346 250.93522056 290.48015335 239 307 C238.57090332 307.59441895 238.14180664 308.18883789 237.69970703 308.80126953 C232.24222231 316.27147296 226.26765716 323.20268167 220 330 C219.2471875 330.8559375 218.494375 331.711875 217.71875 332.59375 C213.10589664 337.83850108 208.3655714 342.53820392 203 347 C202.12859375 347.75925781 201.2571875 348.51851563 200.359375 349.30078125 C192.66961503 355.91109631 184.58532387 361.61180948 176 367 C175.34402832 367.4125 174.68805664 367.825 174.01220703 368.25 C123.63731818 399.60417346 62.39268459 411.03797656 4.20703125 398.25390625 C-32.52226776 389.67321233 -65.75234516 372.37095436 -93.28125 346.53125 C-95.57912963 344.39184482 -97.91658807 342.3398101 -100.3125 340.3125 C-104.28266668 336.85487533 -107.61378286 333.02028967 -111 329 C-111.81210938 328.08734375 -112.62421875 327.1746875 -113.4609375 326.234375 C-121.24055649 317.42485021 -127.74109124 307.93433487 -134 298 C-134.44230957 297.29858887 -134.88461914 296.59717773 -135.34033203 295.87451172 C-159.14528338 257.70901374 -159.14528338 257.70901374 -157.73535156 246.98754883 C-157 245 -157 245 -153.66015625 243.140625 C-152.13599469 242.49038659 -150.60247296 241.86185106 -149.0625 241.25 C-148.22565674 240.90928467 -147.38881348 240.56856934 -146.52661133 240.2175293 C-86.33864997 216.39028355 -15.58950369 209.3354504 45 235 C46.83391124 207.39308609 46.95904008 179.52458163 44 152 C43.42886475 152.16008545 42.85772949 152.3201709 42.26928711 152.48510742 C28.7195672 155.55948712 13.92185617 152.9315084 1.875 146.4375 C-9.27509136 139.17908014 -16.13103666 129.72265883 -22 118 C-22.30969727 117.40074707 -22.61939453 116.80149414 -22.93847656 116.18408203 C-31.87683259 98.80189123 -38.16857253 80.05999328 -44.67016602 61.6628418 C-52.35874771 39.95438854 -62.87693257 23.3247076 -79.78515625 7.375 C-81 6 -81 6 -81 4 C-56.06324804 -6.75254442 -25.91667294 -7.47957572 0 0 Z M-12 30 C-11.34 30.66 -10.68 31.32 -10 32 C-10 31.34 -10 30.68 -10 30 C-10.66 30 -11.32 30 -12 30 Z M-10 32 C-9.34 33.32 -8.68 34.64 -8 36 C-7.34 35.67 -6.68 35.34 -6 35 C-6.66 34.01 -7.32 33.02 -8 32 C-8.66 32 -9.32 32 -10 32 Z M-6 36 C-4.60667426 39.36720387 -3.0210714 40.9859524 0 43 C-1.39332574 39.63279613 -2.9789286 38.0140476 -6 36 Z M-83.8125 243.25 C-87.08444955 247.36330801 -88.27242797 250.78375794 -87.875 256 C-87.0361839 261.10117232 -84.76400064 264.6174049 -80.6875 267.8125 C-76.12314985 269.82930588 -72.36753239 270.19193437 -67.4375 269.5 C-62.95724945 267.54498158 -60.41291893 265.25287049 -58 261 C-56.54306318 256.38501017 -56.74807168 252.88915877 -58.0625 248.25 C-60.5594135 244.06162896 -63.10834497 240.89923419 -67.921875 239.40234375 C-73.97229201 238.3822153 -78.94679529 239.35743623 -83.8125 243.25 Z M-93 295 C-95.37755783 298.56633674 -95.28653333 301.9523378 -94.5859375 306.0625 C-93.51472543 309.60464123 -92.07298839 310.99315044 -89 313 C-84.03126301 313.92194956 -80.27975954 313.78352625 -75.9375 311.125 C-72.73099756 307.60819087 -72.58942757 304.95549085 -72.6640625 300.328125 C-73.26546067 296.1602958 -74.75742825 294.70214312 -78 292 C-83.97078508 289.67664012 -88.08563198 291.2650803 -93 295 Z M-72.375 327.6875 C-74.27422969 329.88783853 -74.27422969 329.88783853 -73.875 332.625 C-73.13532087 335.14405125 -73.13532087 335.14405125 -71 337 C-67.8695827 337.33302312 -65.82101702 337.47671956 -63.0625 335.875 C-61.72593708 333.9136096 -61.72593708 333.9136096 -62.1875 330.9375 C-62.76648363 327.90484132 -62.76648363 327.90484132 -65 326 C-68.33058011 325.47411893 -69.60020349 325.71593406 -72.375 327.6875 Z " fill="#24A3D6" transform="translate(170,44)"/>
<path d="M0 0 C0.74523926 0.21430664 1.49047852 0.42861328 2.25830078 0.64941406 C26.3342563 7.84236098 45.13230882 22.07325622 57.56420898 44.0546875 C68.88601096 65.32491508 78.94624333 93.25403508 74.31640625 117.59375 C73.38801522 120.52145616 72.30833935 123.22229492 71 126 C70.52949219 127.03382813 70.05898437 128.06765625 69.57421875 129.1328125 C66.79479483 134.74911613 66.79479483 134.74911613 65 137 C62.30859375 137.80078125 62.30859375 137.80078125 60 138 C57.09656898 132.30339483 54.26053648 126.5872264 51.57421875 120.78515625 C40.90087194 97.82660971 27.86878424 76.74285363 12 57 C11.28585938 56.08992188 10.57171875 55.17984375 9.8359375 54.2421875 C6.96639887 50.58135073 6.96639887 50.58135073 4 47 C3.67 47 3.34 47 3 47 C3.76183594 47.98097656 4.52367187 48.96195313 5.30859375 49.97265625 C11.80085454 58.42273283 17.69854694 66.96695706 22.97509766 76.22363281 C23.94954804 77.91255635 24.9640303 79.57819556 25.98046875 81.2421875 C46.84170774 115.96927995 55.7265322 155.11098075 59 195 C59.66 195 60.32 195 61 195 C61.24105469 194.43667969 61.48210937 193.87335938 61.73046875 193.29296875 C74.01968184 171.09675926 106.66776131 161.62081925 129 155 C147.09681496 149.85874301 166.25981807 147.95680506 185 147 C155.9633628 142.67539446 130.83967542 146.7732185 103.2980957 156.27001953 C93.51787722 159.6166194 93.51787722 159.6166194 89 160 C88.67 159.67 88.34 159.34 88 159 C88 149.56391307 93.59725761 138.41266683 100.1171875 131.63671875 C118.37663389 115.7638805 143.01785551 108.63931095 167 110 C174.43677051 111.18848506 181.32578212 113.53797254 188 117 C188.75410156 117.38542969 189.50820313 117.77085937 190.28515625 118.16796875 C210.95006785 129.6260742 229.85776057 151.77647591 238 174 C238.03927154 175.9996144 238.04398522 178.00048373 238 180 C237.29093506 179.98428955 236.58187012 179.9685791 235.85131836 179.95239258 C212.59805689 179.50561325 195.55095121 182.50464169 174.9453125 193.09448242 C157.4634961 202.06709271 137.99617681 208.4147279 118.23046875 204.1953125 C105.68586466 199.87984964 98.18181271 190.7325972 91 180 C82.74402243 181.2893951 75.97467478 189.6443458 71.125 195.875 C63.61852249 206.42972509 59.91007512 217.13590238 59.375 230 C59.31699219 231.16208984 59.31699219 231.16208984 59.2578125 232.34765625 C59.16478643 234.23143415 59.08136825 236.11568256 59 238 C59.66 238.33 60.32 238.66 61 239 C58.10687304 240.44656348 56.23433934 240.29947586 53 240 C51.57271374 239.37851553 50.16869729 238.70157683 48.7890625 237.98046875 C48.0770166 237.61203857 47.3649707 237.2436084 46.63134766 236.86401367 C46.09300293 236.57888916 45.5546582 236.29376465 45 236 C45.0721875 234.84113281 45.144375 233.68226563 45.21875 232.48828125 C46.73579852 205.67990521 46.87214629 178.71630759 44 152 C43.42886475 152.16008545 42.85772949 152.3201709 42.26928711 152.48510742 C28.7195672 155.55948712 13.92185617 152.9315084 1.875 146.4375 C-9.27509136 139.17908014 -16.13103666 129.72265883 -22 118 C-22.30969727 117.40074707 -22.61939453 116.80149414 -22.93847656 116.18408203 C-31.87683259 98.80189123 -38.16857253 80.05999328 -44.67016602 61.6628418 C-52.35874771 39.95438854 -62.87693257 23.3247076 -79.78515625 7.375 C-81 6 -81 6 -81 4 C-56.06324804 -6.75254442 -25.91667294 -7.47957572 0 0 Z M-12 30 C-11.34 30.66 -10.68 31.32 -10 32 C-10 31.34 -10 30.68 -10 30 C-10.66 30 -11.32 30 -12 30 Z M-10 32 C-9.34 33.32 -8.68 34.64 -8 36 C-7.34 35.67 -6.68 35.34 -6 35 C-6.66 34.01 -7.32 33.02 -8 32 C-8.66 32 -9.32 32 -10 32 Z M-6 36 C-4.60667426 39.36720387 -3.0210714 40.9859524 0 43 C-1.39332574 39.63279613 -2.9789286 38.0140476 -6 36 Z " fill="#52A23D" transform="translate(170,44)"/>
<path d="M0 0 C1.75742857 5.21927914 -0.42888532 9.54169501 -2.125 14.5625 C-2.47973389 15.61445557 -2.83446777 16.66641113 -3.19995117 17.75024414 C-9.93203151 36.96316346 -19.06477944 55.48015335 -31 72 C-31.42909668 72.59441895 -31.85819336 73.18883789 -32.30029297 73.80126953 C-37.75777769 81.27147296 -43.73234284 88.20268167 -50 95 C-50.7528125 95.8559375 -51.505625 96.711875 -52.28125 97.59375 C-56.89410336 102.83850108 -61.6344286 107.53820392 -67 112 C-67.87140625 112.75925781 -68.7428125 113.51851563 -69.640625 114.30078125 C-77.33038497 120.91109631 -85.41467613 126.61180948 -94 132 C-94.65597168 132.4125 -95.31194336 132.825 -95.98779297 133.25 C-146.36268182 164.60417346 -207.60731541 176.03797656 -265.79296875 163.25390625 C-302.52226776 154.67321233 -335.75234516 137.37095436 -363.28125 111.53125 C-365.57912963 109.39184482 -367.91658807 107.3398101 -370.3125 105.3125 C-374.28266668 101.85487533 -377.61378286 98.02028967 -381 94 C-381.81210937 93.08734375 -382.62421875 92.1746875 -383.4609375 91.234375 C-391.24055649 82.42485021 -397.74109124 72.93433487 -404 63 C-404.44230957 62.29858887 -404.88461914 61.59717773 -405.34033203 60.87451172 C-428.98905562 22.95948727 -428.98905562 22.95948727 -427.77929688 12.00073242 C-427 10 -427 10 -425.23754883 8.84326172 C-424.48497803 8.54178223 -423.73240723 8.24030273 -422.95703125 7.9296875 C-421.71663086 7.42115234 -421.71663086 7.42115234 -420.45117188 6.90234375 C-419.1450293 6.39380859 -419.1450293 6.39380859 -417.8125 5.875 C-416.96107422 5.52824219 -416.10964844 5.18148438 -415.23242188 4.82421875 C-402.51438571 -0.31020884 -402.51438571 -0.31020884 -396 0 C-398.2550331 2.2550331 -399.85216066 2.83150589 -402.83203125 3.91015625 C-403.79560547 4.26013672 -404.75917969 4.61011719 -405.75195312 4.97070312 C-406.76193359 5.33099609 -407.77191406 5.69128906 -408.8125 6.0625 C-409.81087891 6.42666016 -410.80925781 6.79082031 -411.83789062 7.16601562 C-416.21628892 8.74410588 -420.40885451 10.17832887 -425 11 C-424.814375 12.9490625 -424.814375 12.9490625 -424.625 14.9375 C-424.55539062 15.66839844 -424.48578125 16.39929688 -424.4140625 17.15234375 C-424.27742188 17.76207031 -424.14078125 18.37179687 -424 19 C-423.34 19.33 -422.68 19.66 -422 20 C-421.25390625 21.85546875 -421.25390625 21.85546875 -420.5625 24.1875 C-419.35523106 28.02057887 -417.86026099 31.42829889 -416 35 C-415.45534642 36.29041002 -414.91405587 37.58224158 -414.375 38.875 C-404.51943475 61.18168013 -389.45898057 81.97348191 -372.52539062 99.42333984 C-370.98603068 101.01443884 -369.46963203 102.62541889 -367.953125 104.23828125 C-350.81809358 122.19297776 -327.28606612 139.41732691 -303.765625 147.984375 C-301.55493887 148.79620889 -299.40207408 149.66192509 -297.234375 150.578125 C-280.28092137 157.63605077 -262.31294428 162.35500609 -244 164 C-243.14921875 164.08467529 -242.2984375 164.16935059 -241.421875 164.2565918 C-209.48844352 167.24238887 -178.17582027 164.14936894 -147.546875 154.69921875 C-145 154 -145 154 -142 154 C-142 153.34 -142 152.68 -142 152 C-140.35 152 -138.7 152 -137 152 C-137 151.34 -137 150.68 -137 150 C-136.46375 149.87625 -135.9275 149.7525 -135.375 149.625 C-126.64743606 147.32827265 -118.92481001 143.21235263 -111 139 C-109.98099609 138.46149414 -109.98099609 138.46149414 -108.94140625 137.91210938 C-101.44949391 133.92169541 -94.23780589 129.66610083 -87.3125 124.75 C-86.74837402 124.34990723 -86.18424805 123.94981445 -85.60302734 123.53759766 C-82.99882877 121.6374068 -80.68783144 119.68452557 -78.41796875 117.390625 C-76.06054251 115.05985786 -73.8517397 113.64958002 -71 112 C-67.51142278 109.17294189 -64.26296606 106.0821601 -61 103 C-60.46665039 102.50064941 -59.93330078 102.00129883 -59.38378906 101.48681641 C-33.00145664 76.60746822 -8.03096298 39.33110229 -2 3 C-2.90878906 3.43570312 -3.81757813 3.87140625 -4.75390625 4.3203125 C-32.47969165 17.51028544 -61.51933621 26.12987678 -92.4765625 26.16796875 C-93.44548431 26.17129715 -94.41440613 26.17462555 -95.41268921 26.17805481 C-97.4513909 26.18308492 -99.49010071 26.18546436 -101.52880859 26.18530273 C-104.59617193 26.18747954 -107.66316924 26.20565111 -110.73046875 26.22460938 C-121.99589046 26.25704943 -132.86991558 25.81364868 -144 24 C-144.81549316 23.86891846 -145.63098633 23.73783691 -146.47119141 23.6027832 C-148.3193401 23.2849728 -150.16027782 22.92592726 -152 22.5625 C-153.33843634 22.29894371 -154.67698132 22.03593866 -156.015625 21.7734375 C-157.0065918 21.57766113 -157.0065918 21.57766113 -158.01757812 21.37792969 C-159.9596928 21.00768418 -161.90961224 20.67915422 -163.859375 20.3515625 C-180.02734307 17.59196956 -195.51297411 12.30313311 -211 7 C-211 6.01 -211 5.02 -211 4 C-210.34 4 -209.68 4 -209 4 C-209 3.34 -209 2.68 -209 2 C-140.37832751 -13.94144068 -68.75789991 -17.97342211 0 0 Z " fill="#0473A0" transform="translate(440,279)"/>
<path d="M0 0 C-2.2550331 2.2550331 -3.85216066 2.83150589 -6.83203125 3.91015625 C-8.27739258 4.43512695 -8.27739258 4.43512695 -9.75195312 4.97070312 C-10.76193359 5.33099609 -11.77191406 5.69128906 -12.8125 6.0625 C-13.81087891 6.42666016 -14.80925781 6.79082031 -15.83789062 7.16601562 C-20.21628892 8.74410588 -24.40885451 10.17832887 -29 11 C-28.814375 12.9490625 -28.814375 12.9490625 -28.625 14.9375 C-28.55539063 15.66839844 -28.48578125 16.39929688 -28.4140625 17.15234375 C-28.27742188 17.76207031 -28.14078125 18.37179687 -28 19 C-27.34 19.33 -26.68 19.66 -26 20 C-25.25390625 21.85546875 -25.25390625 21.85546875 -24.5625 24.1875 C-23.35523106 28.02057887 -21.86026099 31.42829889 -20 35 C-19.45534642 36.29041002 -18.91405587 37.58224158 -18.375 38.875 C-8.51943475 61.18168013 6.54101943 81.97348191 23.47460938 99.42333984 C25.01396932 101.01443884 26.53036797 102.62541889 28.046875 104.23828125 C45.18190642 122.19297776 68.71393388 139.41732691 92.234375 147.984375 C94.44506113 148.79620889 96.59792592 149.66192509 98.765625 150.578125 C115.71907863 157.63605077 133.68705572 162.35500609 152 164 C152.85078125 164.08467529 153.7015625 164.16935059 154.578125 164.2565918 C186.51155648 167.24238887 217.82417973 164.14936894 248.453125 154.69921875 C251 154 251 154 254 154 C254 153.34 254 152.68 254 152 C255.65 152 257.3 152 259 152 C259 151.34 259 150.68 259 150 C259.53625 149.87625 260.0725 149.7525 260.625 149.625 C269.35256394 147.32827265 277.07518999 143.21235263 285 139 C286.01900391 138.46149414 286.01900391 138.46149414 287.05859375 137.91210938 C294.55050609 133.92169541 301.76219411 129.66610083 308.6875 124.75 C309.25162598 124.34990723 309.81575195 123.94981445 310.39697266 123.53759766 C313.00117123 121.6374068 315.31216856 119.68452557 317.58203125 117.390625 C319.93945749 115.05985786 322.1482603 113.64958002 325 112 C328.48857722 109.17294189 331.73703394 106.0821601 335 103 C335.53334961 102.50064941 336.06669922 102.00129883 336.61621094 101.48681641 C362.85721098 76.74074899 389.17117266 38.47800896 394 2 C396 5 396 5 395.88085938 6.91674805 C387.60483982 40.16001387 369.02869767 70.0252152 346 95 C345.2471875 95.8559375 344.494375 96.711875 343.71875 97.59375 C339.10589664 102.83850108 334.3655714 107.53820392 329 112 C328.12859375 112.75925781 327.2571875 113.51851563 326.359375 114.30078125 C318.66961503 120.91109631 310.58532387 126.61180948 302 132 C301.34402832 132.4125 300.68805664 132.825 300.01220703 133.25 C249.63731818 164.60417346 188.39268459 176.03797656 130.20703125 163.25390625 C93.47773224 154.67321233 60.24765484 137.37095436 32.71875 111.53125 C30.42087037 109.39184482 28.08341193 107.3398101 25.6875 105.3125 C21.71733332 101.85487533 18.38621714 98.02028967 15 94 C14.18789063 93.08734375 13.37578125 92.1746875 12.5390625 91.234375 C4.75944351 82.42485021 -1.74109124 72.93433487 -8 63 C-8.44230957 62.29858887 -8.88461914 61.59717773 -9.34033203 60.87451172 C-32.98905562 22.95948727 -32.98905562 22.95948727 -31.77929688 12.00073242 C-31 10 -31 10 -29.23754883 8.84326172 C-28.48497803 8.54178223 -27.73240723 8.24030273 -26.95703125 7.9296875 C-25.71663086 7.42115234 -25.71663086 7.42115234 -24.45117188 6.90234375 C-23.1450293 6.39380859 -23.1450293 6.39380859 -21.8125 5.875 C-20.96107422 5.52824219 -20.10964844 5.18148438 -19.23242188 4.82421875 C-6.51438571 -0.31020884 -6.51438571 -0.31020884 0 0 Z " fill="#2482A7" transform="translate(44,279)"/>
<path d="M0 0 C0.99 1.485 0.99 1.485 2 3 C-2.88481837 1.42987981 -7.67029403 -0.25893424 -12.43945312 -2.15454102 C-44.35864826 -14.66246609 -91.04103238 -19.98632254 -124 -9 C-126.20558905 -8.70765814 -128.4145787 -8.44072814 -130.625 -8.1875 C-142.28259974 -6.74105163 -153.6728594 -3.84124876 -164.8984375 -0.41796875 C-167 0 -167 0 -170 -1 C-167.4869807 -3.5130193 -165.68228371 -3.76590349 -162.2421875 -4.62109375 C-161.06696533 -4.91540283 -159.89174316 -5.20971191 -158.6809082 -5.51293945 C-156.79698364 -5.97059692 -156.79698364 -5.97059692 -154.875 -6.4375 C-153.59778076 -6.75098389 -152.32056152 -7.06446777 -151.00463867 -7.38745117 C-103.01434241 -19.03226746 -45.62260851 -22.65654642 0 0 Z " fill="#2485A6" transform="translate(215,279)"/>
<path d="M0 0 C0.66 0 1.32 0 2 0 C3.35439668 2.70879335 3.06501451 5.00933268 3 8 C2.29093506 7.98428955 1.58187012 7.9685791 0.85131836 7.95239258 C-22.40194311 7.50561325 -39.44904879 10.50464169 -60.0546875 21.09448242 C-77.5365039 30.06709271 -97.00382319 36.4147279 -116.76953125 32.1953125 C-129.31413534 27.87984964 -136.81818729 18.7325972 -144 8 C-148.10084544 8.56229086 -150.45399746 10.76132032 -153.5625 13.375 C-154.98755859 14.56222656 -154.98755859 14.56222656 -156.44140625 15.7734375 C-158.37935136 17.45989355 -160.2248267 19.14712551 -162 21 C-162.66 20.67 -163.32 20.34 -164 20 C-158.33998772 14.13121677 -152.73304432 8.62661705 -146 4 C-142.06784775 5.48415291 -140.84245262 7.5262198 -138.8125 11.125 C-133.31074862 20.09473568 -125.85602973 26.71413182 -115.6640625 29.6796875 C-113.111206 30.26756928 -110.59911952 30.67511006 -108 31 C-107.2265625 31.09667969 -106.453125 31.19335938 -105.65625 31.29296875 C-84.69120406 32.52035277 -64.37472412 21.5807828 -46.546875 11.91796875 C-45.91861816 11.57934814 -45.29036133 11.24072754 -44.64306641 10.8918457 C-43.38314738 10.20796989 -42.13115589 9.50947177 -40.8828125 8.8046875 C-38.33686313 7.71658466 -35.85887136 7.35140673 -33.125 6.9375 C-32.11695313 6.78152344 -31.10890625 6.62554687 -30.0703125 6.46484375 C-29.05710937 6.31144531 -28.04390625 6.15804687 -27 6 C-26.11828125 5.81695312 -25.2365625 5.63390625 -24.328125 5.4453125 C-19.4267086 4.78948918 -14.56344671 4.89608077 -9.625 4.9375 C-8.09166016 4.94426758 -8.09166016 4.94426758 -6.52734375 4.95117188 C-4.01816806 4.962897 -1.5091151 4.97930824 1 5 C0.67 3.35 0.34 1.7 0 0 Z " fill="#538332" transform="translate(405,216)"/>
<path d="M0 0 C0 0.33 0 0.66 0 1 C-1.15411377 1.02505615 -2.30822754 1.0501123 -3.49731445 1.07592773 C-7.8268322 1.17092765 -12.15622357 1.27091253 -16.4855957 1.37231445 C-18.35047424 1.41531666 -20.21538343 1.4570119 -22.08032227 1.49731445 C-38.26470689 1.21407378 -38.26470689 1.21407378 -54 4 C-55.4564546 4.13440466 -56.91740102 4.2235691 -58.37890625 4.28125 C-59.63670898 4.33732422 -59.63670898 4.33732422 -60.91992188 4.39453125 C-62.68554067 4.46499941 -64.45116571 4.53531122 -66.21679688 4.60546875 C-67.47266602 4.66154297 -67.47266602 4.66154297 -68.75390625 4.71875 C-69.90354858 4.76418945 -69.90354858 4.76418945 -71.07641602 4.81054688 C-73.08274513 4.892459 -73.08274513 4.892459 -75 6 C-76.87379605 6.07033769 -78.75001102 6.0843022 -80.625 6.0625 C-81.62789063 6.05347656 -82.63078125 6.04445313 -83.6640625 6.03515625 C-84.43492187 6.02355469 -85.20578125 6.01195312 -86 6 C-86 6.66 -86 7.32 -86 8 C-89.99616066 9.66506694 -93.59993504 10.17774922 -97.875 10.4375 C-102.36276518 10.74662036 -105.83086723 11.49102789 -109.94140625 13.234375 C-116.68307944 15.74171456 -123.87430148 16.26889428 -131 16 C-130.34 15.67 -129.68 15.34 -129 15 C-129 14.34 -129 13.68 -129 13 C-86.473675 3.12074666 -43.76173441 -3.13963878 0 0 Z " fill="#115B7E" transform="translate(360,268)"/>
<path d="M0 0 C3.87781112 1.33717625 6.21901465 4.08335683 9 7 C9.77859375 7.763125 10.5571875 8.52625 11.359375 9.3125 C14.00069709 12.00070946 16.41875214 14.7776871 18.8125 17.6875 C19.60269531 18.64011719 20.39289063 19.59273437 21.20703125 20.57421875 C23 23 23 23 23 25 C23.66 25 24.32 25 25 25 C26.5078125 26.6796875 26.5078125 26.6796875 28.125 28.875 C28.66382813 29.59429687 29.20265625 30.31359375 29.7578125 31.0546875 C31 33 31 33 31 35 C31.66 35 32.32 35 33 35 C34.05377361 36.63319899 35.04187175 38.30891513 36 40 C38.03653181 43.03261767 40.09586947 46.04871818 42.16015625 49.0625 C43.79695167 51.67581244 44.97243859 54.10366111 46 57 C46.99 57 47.98 57 49 57 C49.41894531 58.00160156 49.83789062 59.00320312 50.26953125 60.03515625 C51.9312217 63.91243398 53.78085041 67.67594705 55.6875 71.4375 C56.00783203 72.07365234 56.32816406 72.70980469 56.65820312 73.36523438 C57.43694422 74.91109357 58.21820334 76.45568387 59 78 C58.34 78 57.68 78 57 78 C56.58492187 77.23300781 56.16984375 76.46601563 55.7421875 75.67578125 C47.06652743 60.04870317 37.07479711 45.03227134 26 31 C25.29875 30.10667969 24.5975 29.21335937 23.875 28.29296875 C19.11451231 22.35086001 14.07487006 16.7330403 8.80932617 11.23852539 C5 7.2123025 5 7.2123025 5 5 C4.34 5 3.68 5 3 5 C3.99 6.98 4.98 8.96 6 11 C5.34 11 4.68 11 4 11 C4 10.34 4 9.68 4 9 C3.34 9 2.68 9 2 9 C2 8.34 2 7.68 2 7 C1.34 7 0.68 7 0 7 C-2 4 -2 4 -2 1 C-1.34 0.67 -0.68 0.34 0 0 Z M1 3 C1.66 3.66 2.32 4.32 3 5 C3 4.34 3 3.68 3 3 C2.34 3 1.68 3 1 3 Z " fill="#5B8D3E" transform="translate(157,71)"/>
<path d="M0 0 C0.99 0.33 1.98 0.66 3 1 C-5.53730584 8.47212988 -14.39576683 14.97233711 -24 21 C-24.65597168 21.4125 -25.31194336 21.825 -25.98779297 22.25 C-45.81648333 34.59170856 -69.4219145 47.60278518 -93 50 C-92 48 -92 48 -90.06640625 47.21875 C-84.09006925 45.50323361 -78.11892508 44.10661411 -72 43 C-72 42.34 -72 41.68 -72 41 C-70.35 41 -68.7 41 -67 41 C-67 40.34 -67 39.68 -67 39 C-66.46375 38.87625 -65.9275 38.7525 -65.375 38.625 C-56.64743606 36.32827265 -48.92481001 32.21235263 -41 28 C-40.32066406 27.64099609 -39.64132812 27.28199219 -38.94140625 26.91210938 C-31.44949391 22.92169541 -24.23780589 18.66610083 -17.3125 13.75 C-16.74837402 13.34990723 -16.18424805 12.94981445 -15.60302734 12.53759766 C-12.0758298 9.96392736 -9.05803821 7.10524635 -6 4 C-4.36021682 2.95650161 -2.69905634 1.94392019 -1 1 C-0.67 0.67 -0.34 0.34 0 0 Z " fill="#2C8AAC" transform="translate(370,390)"/>
<path d="M0 0 C5.42337312 2.54456472 9.80877675 5.87470205 13 11 C14.43440319 16.02041115 14.60943177 20.48180992 12.5 25.3125 C10.08193693 29.33988207 7.43876308 32.2830453 3 34 C-2.6661664 34.85943195 -7.33425593 34.83287204 -12.5 32.25 C-13.325 31.5075 -14.15 30.765 -15 30 C-15.763125 29.319375 -16.52625 28.63875 -17.3125 27.9375 C-20.68624695 24.06393868 -20.34561732 19.68099445 -20.26171875 14.7890625 C-19.87482483 10.66604374 -18.98066494 7.92743878 -16 5 C-11.20289057 1.77180821 -5.87499634 -1.27717312 0 0 Z M-14.8125 6.25 C-18.08444955 10.36330801 -19.27242797 13.78375794 -18.875 19 C-18.0361839 24.10117232 -15.76400064 27.6174049 -11.6875 30.8125 C-7.12314985 32.82930588 -3.36753239 33.19193437 1.5625 32.5 C6.04275055 30.54498158 8.58708107 28.25287049 11 24 C12.45693682 19.38501017 12.25192832 15.88915877 10.9375 11.25 C8.4405865 7.06162896 5.89165503 3.89923419 1.078125 2.40234375 C-4.97229201 1.3822153 -9.94679529 2.35743623 -14.8125 6.25 Z " fill="#1D7EA3" transform="translate(101,281)"/>
<path d="M0 0 C3.00000123 1.6415101 5.25757948 3.05510116 7.375 5.75 C8.65569448 10.36050013 8.68940252 14.40348891 6.8125 18.75 C2.08045227 24.62426614 2.08045227 24.62426614 -2.3359375 25.421875 C-6.63752141 25.65439305 -9.99079715 25.53923509 -13.5 22.875 C-17.1164187 18.71611849 -18.0677564 15.93105731 -17.875 10.4375 C-16.58118545 5.35465712 -14.51242903 3.00828602 -10.1875 0.125 C-6.21763845 -1.27612761 -4.05469533 -1.08607911 0 0 Z M-14 5 C-16.37755783 8.56633674 -16.28653333 11.9523378 -15.5859375 16.0625 C-14.51472543 19.60464123 -13.07298839 20.99315044 -10 23 C-5.03126301 23.92194956 -1.27975954 23.78352625 3.0625 21.125 C6.26900244 17.60819087 6.41057243 14.95549085 6.3359375 10.328125 C5.73453933 6.1602958 4.24257175 4.70214312 1 2 C-4.97078508 -0.32335988 -9.08563198 1.2650803 -14 5 Z " fill="#2380A6" transform="translate(91,334)"/>
<path d="M0 0 C0 0.33 0 0.66 0 1 C-1.0725 1.28875 -2.145 1.5775 -3.25 1.875 C-6.75605326 2.76450709 -6.75605326 2.76450709 -8.71875 4.01171875 C-12.71661965 5.74367255 -17.14354072 5.75977919 -21.44921875 6.12304688 C-26.74219675 6.64668374 -31.08271187 7.95854667 -36 10 C-35.49210937 10.4125 -34.98421875 10.825 -34.4609375 11.25 C-29.52825486 15.38828057 -25.63895212 19.69319483 -22 25 C-24.89852365 23.68692628 -26.98277217 22.27315362 -29.234375 20.03125 C-29.80800781 19.46019531 -30.38164063 18.88914062 -30.97265625 18.30078125 C-31.55917969 17.70652344 -32.14570312 17.11226562 -32.75 16.5 C-33.35199219 15.90574219 -33.95398438 15.31148437 -34.57421875 14.69921875 C-35.14269531 14.12816406 -35.71117188 13.55710937 -36.296875 12.96875 C-36.81604492 12.44732422 -37.33521484 11.92589844 -37.87011719 11.38867188 C-39 10 -39 10 -39 8 C-32.12075621 5.03372057 -25.12863849 3.23478538 -17.8125 1.75 C-16.96977539 1.57500977 -16.12705078 1.40001953 -15.25878906 1.21972656 C-10.0767393 0.20933867 -5.27821396 -0.17046135 0 0 Z " fill="#5B9144" transform="translate(128,40)"/>
<path d="M0 0 C-2.67041016 2.94921875 -2.67041016 2.94921875 -5.63671875 3.40625 C-6.64347656 3.4371875 -7.65023437 3.468125 -8.6875 3.5 C-13.27282495 3.76940159 -16.74810828 4.45592846 -20.94140625 6.234375 C-27.68307944 8.74171456 -34.87430148 9.26889428 -42 9 C-41.34 8.67 -40.68 8.34 -40 8 C-40 7.34 -40 6.68 -40 6 C-35.77624882 4.97617034 -31.54534004 3.98551703 -27.3125 3 C-26.13365234 2.71382813 -24.95480469 2.42765625 -23.74023438 2.1328125 C-15.69751523 0.28188535 -8.24459121 -0.37150969 0 0 Z " fill="#176789" transform="translate(271,275)"/>
<path d="M0 0 C0.66 0.33 1.32 0.66 2 1 C2.34541851 3.33157492 2.67794257 5.66508361 3 8 C3.99 9.485 3.99 9.485 5 11 C5.66846121 13.0278529 6.2877778 15.07214884 6.875 17.125 C8.32113658 21.97603278 9.9919044 26.50817831 12.12890625 31.08984375 C13.30398796 33.66659242 14.1557137 36.29828385 15 39 C15.49755236 40.50081366 15.99775169 42.00075131 16.5 43.5 C17.66666667 47 18.83333333 50.5 20 54 C19.34 54.66 18.68 55.32 18 56 C13.1362744 42.90697078 8.2775667 29.81226145 3.5 16.6875 C3.17451172 15.79466309 2.84902344 14.90182617 2.51367188 13.98193359 C0.94861951 9.67305534 -0.57787745 5.35880561 -2 1 C-1.34 0.67 -0.68 0.34 0 0 Z " fill="#59903F" transform="translate(120,84)"/>
<path d="M0 0 C7.78297806 -0.47169564 14.93725845 1.29377172 22.5 3 C23.81233116 3.28982808 25.12483022 3.57889698 26.4375 3.8671875 C29.62672738 4.57069354 32.81404991 5.2818242 36 6 C36.495 7.98 36.495 7.98 37 10 C36.34 10.33 35.68 10.66 35 11 C34.505 10.01 34.505 10.01 34 9 C32.906875 9.04125 31.81375 9.0825 30.6875 9.125 C27 9 27 9 24 7 C24 6.34 24 5.68 24 5 C22.81921875 5.01160156 21.6384375 5.02320313 20.421875 5.03515625 C18.86458492 5.04453752 17.30729312 5.05363736 15.75 5.0625 C14.97269531 5.07087891 14.19539063 5.07925781 13.39453125 5.08789062 C12.26337891 5.09272461 12.26337891 5.09272461 11.109375 5.09765625 C10.07248535 5.10551147 10.07248535 5.10551147 9.01464844 5.11352539 C6.86250164 4.99225197 5.04416959 4.68722676 3 4 C1.25 1.9375 1.25 1.9375 0 0 Z " fill="#116285" transform="translate(404,273)"/>
<path d="M0 0 C0.99 0.33 1.98 0.66 3 1 C3 1.99 3 2.98 3 4 C2.01 4 1.02 4 0 4 C0.020625 5.299375 0.04125 6.59875 0.0625 7.9375 C0.08399454 9.29165633 0.07148199 10.64756083 0 12 C-0.33 12.33 -0.66 12.66 -1 13 C0.32 13.33 1.64 13.66 3 14 C3 13.34 3 12.68 3 12 C5.64 12 8.28 12 11 12 C11.33 11.01 11.66 10.02 12 9 C13.65 8.67 15.3 8.34 17 8 C17.33 8.99 17.66 9.98 18 11 C15.11255688 12.20866585 12.21400173 13.38802937 9.3125 14.5625 C8.49587891 14.90474609 7.67925781 15.24699219 6.83789062 15.59960938 C-0.67644333 18.61142744 -0.67644333 18.61142744 -5 17 C-4.53444296 10.59859065 -2.85288164 5.73230171 0 0 Z " fill="#548D38" transform="translate(263,186)"/>
<path d="M0 0 C2.78712092 1.39356046 3.26463329 3.16505673 4.625 5.9375 C5.07101563 6.83339844 5.51703125 7.72929687 5.9765625 8.65234375 C7 11 7 11 7 13 C7.66 13 8.32 13 9 13 C9.28875 13.928125 9.5775 14.85625 9.875 15.8125 C14.96164998 27.39224696 25.22621774 33.58206051 36 39 C36 39.66 36 40.32 36 41 C24.76773559 38.1199322 14.72402133 29.14267769 8.6953125 19.453125 C6.67950168 16.02908197 4.8137684 12.53538228 3 9 C2.43152344 7.93265625 1.86304688 6.8653125 1.27734375 5.765625 C0 3 0 3 0 0 Z " fill="#528034" transform="translate(145,153)"/>
<path d="M0 0 C-2.2550331 2.2550331 -3.85216066 2.83150589 -6.83203125 3.91015625 C-8.27739258 4.43512695 -8.27739258 4.43512695 -9.75195312 4.97070312 C-10.76193359 5.33099609 -11.77191406 5.69128906 -12.8125 6.0625 C-13.81087891 6.42666016 -14.80925781 6.79082031 -15.83789062 7.16601562 C-20.21628892 8.74410588 -24.40885451 10.17832887 -29 11 C-28.814375 12.9490625 -28.814375 12.9490625 -28.625 14.9375 C-28.55539063 15.66839844 -28.48578125 16.39929688 -28.4140625 17.15234375 C-28.27742188 17.76207031 -28.14078125 18.37179687 -28 19 C-27.34 19.33 -26.68 19.66 -26 20 C-26.99 20.66 -27.98 21.32 -29 22 C-29.5345256 20.75579353 -30.05208611 19.50429064 -30.5625 18.25 C-30.85253906 17.55390625 -31.14257812 16.8578125 -31.44140625 16.140625 C-32.10748047 13.58811679 -31.96468914 12.44431774 -31 10 C-29.23754883 8.84326172 -29.23754883 8.84326172 -26.95703125 7.9296875 C-25.71663086 7.42115234 -25.71663086 7.42115234 -24.45117188 6.90234375 C-23.1450293 6.39380859 -23.1450293 6.39380859 -21.8125 5.875 C-20.96107422 5.52824219 -20.10964844 5.18148438 -19.23242188 4.82421875 C-6.51438571 -0.31020884 -6.51438571 -0.31020884 0 0 Z " fill="#348EB0" transform="translate(44,279)"/>
<path d="M0 0 C8.49946076 -0.20590887 16.85700222 -0.09045279 25.3125 0.875 C26.03493896 0.95347168 26.75737793 1.03194336 27.50170898 1.11279297 C31.02629121 1.55037365 32.99159796 1.99439864 36 4 C33.72926348 4.16798051 31.45840707 4.33434113 29.1875 4.5 C27.29064453 4.63921875 27.29064453 4.63921875 25.35546875 4.78125 C23.24021483 4.91914781 21.11974408 5 19 5 C18.67 4.34 18.34 3.68 18 3 C17.3709375 3.10699219 16.741875 3.21398437 16.09375 3.32421875 C9.73002118 4.21552414 5.83136986 3.69970827 0 1 C0 0.67 0 0.34 0 0 Z " fill="#0F6283" transform="translate(365,269)"/>
<path d="M0 0 C0.66 0 1.32 0 2 0 C4.32759263 4.56897813 6.58114963 9.16584621 8.75 13.8125 C9.17796875 14.72644531 9.6059375 15.64039063 10.046875 16.58203125 C11 19 11 19 11 22 C14.68862535 21.50153711 16.68546144 20.9758353 19 18 C20.17574711 15.90010348 20.17574711 15.90010348 21 14 C22 17 22 17 21.1796875 19.2265625 C20.74914062 20.01804688 20.31859375 20.80953125 19.875 21.625 C19.45992187 22.42164063 19.04484375 23.21828125 18.6171875 24.0390625 C16.57036451 26.52095898 15.13554235 26.69383593 12 27 C0 3.38297872 0 3.38297872 0 0 Z " fill="#5A8C3D" transform="translate(218,155)"/>
<path d="M0 0 C2.6348062 0.47408278 5.11151252 1.05120239 7.6875 1.75 C19.66114332 4.78437296 31.68243111 6.1283657 44 7 C38.0635835 10.957611 30.17260864 8.9418745 23.4375 7.75 C22.6738916 7.61940186 21.9102832 7.48880371 21.12353516 7.35424805 C13.31515303 5.96811139 5.65570178 4.05473195 -2 2 C-1.34 1.34 -0.68 0.68 0 0 Z " fill="#2588AC" transform="translate(164,437)"/>
<path d="M0 0 C2.3125 1.5 2.3125 1.5 4 4 C4.63594926 7.51185313 4.63017266 10.73965469 3 14 C-0.26621578 15.63310789 -3.48256426 15.62155491 -7 15 C-9.5625 13.4375 -9.5625 13.4375 -11 11 C-10.93700518 7.40929502 -10.77851471 5.01545397 -8.5625 2.125 C-5.61146662 0.00025597 -3.62229006 -0.43122501 0 0 Z M-7.375 3.6875 C-9.27422969 5.88783853 -9.27422969 5.88783853 -8.875 8.625 C-8.13532087 11.14405125 -8.13532087 11.14405125 -6 13 C-2.8695827 13.33302312 -0.82101702 13.47671956 1.9375 11.875 C3.27406292 9.9136096 3.27406292 9.9136096 2.8125 6.9375 C2.23351637 3.90484132 2.23351637 3.90484132 0 2 C-3.33058011 1.47411893 -4.60020349 1.71593406 -7.375 3.6875 Z " fill="#2887AB" transform="translate(105,368)"/>
<path d="M0 0 C6.91131636 10.36697455 6.62755411 26.60032421 4.3203125 38.5078125 C3.65202232 40.7418111 2.94213525 42.8689798 2 45 C1.34 45 0.68 45 0 45 C0.31182069 43.58318366 0.62448737 42.16655349 0.9375 40.75 C1.11152344 39.96109375 1.28554687 39.1721875 1.46484375 38.359375 C1.79554236 36.90140448 2.15240133 35.44876116 2.55078125 34.0078125 C4.33497215 26.0332549 2.59001048 18.13022731 0.65625 10.359375 C-0.03374158 6.82727525 -0.10933141 3.5897147 0 0 Z " fill="#608F45" transform="translate(240,123)"/>
<path d="M0 0 C5.5239655 2.59176115 9.57468464 5.96906807 13 11 C13 12.32 13 13.64 13 15 C12.34 15 11.68 15 11 15 C10.608125 13.9275 10.21625 12.855 9.8125 11.75 C8.19542293 8.05168486 6.57127873 6.06340549 3 4 C-2.63396797 2.72781368 -6.53394191 2.79255346 -12 5 C-15.68817694 7.79105282 -16.79727996 10.59002654 -18 15 C-18.66 14.01 -19.32 13.02 -20 12 C-17.37543666 5.91578498 -14.5132998 3.55355006 -8.453125 0.88671875 C-5.27201621 -0.26314064 -3.3392334 -0.7259203 0 0 Z " fill="#2283AA" transform="translate(101,281)"/>
<path d="M0 0 C3.89232616 3.1846305 7.4901038 6.47712109 10.97460938 10.10742188 C18.29929904 17.70593172 26.43163082 23.86730937 35 30 C34.01 30.33 33.02 30.66 32 31 C29.87109375 29.6640625 29.87109375 29.6640625 27.4375 27.625 C26.1071875 26.51511719 26.1071875 26.51511719 24.75 25.3828125 C21.28070846 22.37675023 17.85059178 19.33388035 14.4609375 16.23828125 C11.3213444 13.38274658 8.11871191 10.60186131 4.91015625 7.82421875 C2.99813777 5.99822155 1.4523545 4.20812518 0 2 C0 1.34 0 0.68 0 0 Z " fill="#1C7CA4" transform="translate(63,375)"/>
<path d="M0 0 C0.33 0 0.66 0 1 0 C1.02505615 1.02883301 1.0501123 2.05766602 1.07592773 3.11767578 C1.17046052 6.95324067 1.2705672 10.78864371 1.37231445 14.62402344 C1.41549049 16.28056031 1.45717697 17.93713672 1.49731445 19.59375 C1.5554393 21.9818918 1.61900948 24.3698377 1.68359375 26.7578125 C1.70866249 27.85973434 1.70866249 27.85973434 1.73423767 28.98391724 C1.85070592 33.0730966 2.22369622 36.98311143 3 41 C1.515 41.495 1.515 41.495 0 42 C0 43.98 0 45.96 0 48 C-0.33 48 -0.66 48 -1 48 C-0.67 32.16 -0.34 16.32 0 0 Z " fill="#68954A" transform="translate(217,222)"/>
<path d="M0 0 C0.99 0.33 1.98 0.66 3 1 C3 1.99 3 2.98 3 4 C2.01 4 1.02 4 0 4 C0.020625 5.2375 0.04125 6.475 0.0625 7.75 C0.07291197 10.69658724 -0.23285893 13.15061887 -1 16 C-0.67 16.66 -0.34 17.32 0 18 C-1.65 17.67 -3.3 17.34 -5 17 C-4.53444296 10.59859065 -2.85288164 5.73230171 0 0 Z " fill="#638E47" transform="translate(263,186)"/>
<path d="M0 0 C5.01402228 0.52053972 8.77921482 2.22550689 13.0625 4.75 C13.66126953 5.08515625 14.26003906 5.4203125 14.87695312 5.765625 C18.86271028 8.07064118 21.87387923 10.61977112 25 14 C21.44105337 14 20.48934929 13.19645488 17.625 11.1875 C16.82964844 10.6409375 16.03429687 10.094375 15.21484375 9.53125 C14.48394531 9.0259375 13.75304687 8.520625 13 8 C9.98008682 6.05383373 7.54201037 4.65592785 4 4 C4 3.34 4 2.68 4 2 C2.68 1.67 1.36 1.34 0 1 C0 0.67 0 0.34 0 0 Z " fill="#598F38" transform="translate(181,49)"/>
<path d="M0 0 C4.37511786 0.49086688 7.18509084 3.35291499 10.375 6.125 C10.95137207 6.62128906 11.52774414 7.11757812 12.12158203 7.62890625 C16.15228726 11.14877359 19.89319212 14.61391829 23 19 C22.67 19.99 22.34 20.98 22 22 C21.57589844 21.50371094 21.15179688 21.00742188 20.71484375 20.49609375 C14.18690359 12.26461946 14.18690359 12.26461946 6 6 C6 5.34 6 4.68 6 4 C5.195625 3.71125 4.39125 3.4225 3.5625 3.125 C1 2 1 2 0 0 Z " fill="#548C38" transform="translate(365,167)"/>
<path d="M0 0 C-3.95552006 2.63701337 -7.93462154 3.49697412 -12.5 4.6875 C-13.80130859 5.04424805 -13.80130859 5.04424805 -15.12890625 5.40820312 C-15.96292969 5.62798828 -16.79695313 5.84777344 -17.65625 6.07421875 C-18.41744141 6.27619873 -19.17863281 6.47817871 -19.96289062 6.6862793 C-22 7 -22 7 -25 6 C-22.33599491 3.33599491 -19.41934756 2.79868105 -15.875 1.875 C-15.20009521 1.69614258 -14.52519043 1.51728516 -13.82983398 1.33300781 C-9.04773035 0.12467938 -4.89584475 -0.3996608 0 0 Z " fill="#2A86AB" transform="translate(70,272)"/>
<path d="M0 0 C0 0.33 0 0.66 0 1 C-3.0202423 1.64870339 -6.04113979 2.29404156 -9.0625 2.9375 C-9.91005859 3.11990234 -10.75761719 3.30230469 -11.63085938 3.49023438 C-16.40917576 4.50493477 -21.15490384 5.3754625 -26 6 C-23.45460478 2.85775348 -21.00297888 2.25504009 -17.125 1.375 C-16.09632813 1.13523438 -15.06765625 0.89546875 -14.0078125 0.6484375 C-13.01523437 0.43445313 -12.02265625 0.22046875 -11 0 C-9.67548828 -0.30357422 -9.67548828 -0.30357422 -8.32421875 -0.61328125 C-5.36657798 -1.10539291 -2.91480021 -0.61007446 0 0 Z " fill="#5F9341" transform="translate(310,189)"/>
<path d="M0 0 C0 0.66 0 1.32 0 2 C-3.40575688 5.15057048 -7.25169653 7.86810268 -12 8 C-12.99 7.34 -13.98 6.68 -15 6 C-13.73168307 5.18357746 -12.46024069 4.37200895 -11.1875 3.5625 C-10.47980469 3.11003906 -9.77210938 2.65757812 -9.04296875 2.19140625 C-5.80372288 0.30236229 -3.80139296 0 0 0 Z " fill="#5B9944" transform="translate(294,163)"/>
<path d="M0 0 C21.32038835 -0.78640777 21.32038835 -0.78640777 30 5 C28.329375 5.2165625 28.329375 5.2165625 26.625 5.4375 C23.17857953 5.78372035 23.17857953 5.78372035 21 7 C20.67 6.01 20.34 5.02 20 4 C17.03 3.505 17.03 3.505 14 3 C14 2.34 14 1.68 14 1 C9.38 1 4.76 1 0 1 C0 0.67 0 0.34 0 0 Z " fill="#6A9E4D" transform="translate(322,154)"/>
<path d="M0 0 C1.21171875 0.00322266 2.4234375 0.00644531 3.671875 0.00976562 C4.94289063 0.01814453 6.21390625 0.02652344 7.5234375 0.03515625 C8.8021875 0.03966797 10.0809375 0.04417969 11.3984375 0.04882812 C14.56515042 0.06064422 17.73177106 0.0771181 20.8984375 0.09765625 C20.8984375 0.42765625 20.8984375 0.75765625 20.8984375 1.09765625 C16.71128621 1.4354674 12.52366765 1.76710475 8.3359375 2.09765625 C6.56379883 2.24074219 6.56379883 2.24074219 4.75585938 2.38671875 C-0.87908665 2.8286753 -6.44872642 3.23046885 -12.1015625 3.09765625 C-7.64343858 0.86859429 -5.07753763 -0.02372681 0 0 Z " fill="#518A39" transform="translate(336.1015625,192.90234375)"/>
<path d="M0 0 C0.66 0 1.32 0 2 0 C3.35439668 2.70879335 3.06501451 5.00933268 3 8 C1.51306641 7.76990234 1.51306641 7.76990234 -0.00390625 7.53515625 C-3.97196983 6.96829002 -7.93641991 6.68535452 -11.9375 6.4375 C-12.62134766 6.39431641 -13.30519531 6.35113281 -14.00976562 6.30664062 C-15.67302365 6.20196005 -17.33649163 6.10062406 -19 6 C-19 5.67 -19 5.34 -19 5 C-12.4 5 -5.8 5 1 5 C0.67 3.35 0.34 1.7 0 0 Z " fill="#4C8034" transform="translate(405,216)"/>
<path d="M0 0 C7.02147029 2.3404901 12.20971 10.62527375 17 16 C14 16 14 16 12.37426758 14.74658203 C11.80345459 14.17278809 11.2326416 13.59899414 10.64453125 13.0078125 C10.02255859 12.38519531 9.40058594 11.76257812 8.75976562 11.12109375 C8.11716797 10.46238281 7.47457031 9.80367187 6.8125 9.125 C6.15830078 8.47402344 5.50410156 7.82304688 4.83007812 7.15234375 C0 2.26686327 0 2.26686327 0 0 Z " fill="#508233" transform="translate(89,48)"/>
<path d="M0 0 C0.66 0.33 1.32 0.66 2 1 C1.401875 1.721875 0.80375 2.44375 0.1875 3.1875 C-2.01010565 5.86862654 -2.01010565 5.86862654 -3.4375 8.5625 C-5.24627641 11.38419119 -7.30804277 13.03559878 -10 15 C-10.66 14.67 -11.32 14.34 -12 14 C-10.41332422 10.09714233 -7.86649519 7.66479018 -4.875 4.75 C-3.96492187 3.85796875 -3.05484375 2.9659375 -2.1171875 2.046875 C-1.41851562 1.37140625 -0.71984375 0.6959375 0 0 Z " fill="#619346" transform="translate(243,225)"/>
<path d="M0 0 C-3.76447198 2.16653205 -7.82288441 3.13943748 -12 4.1875 C-13.06734375 4.47270508 -13.06734375 4.47270508 -14.15625 4.76367188 C-20.59616401 6.39167253 -20.59616401 6.39167253 -24 5 C-15.9011111 1.28800925 -8.94499092 -0.37270796 0 0 Z " fill="#52873D" transform="translate(320,196)"/>
<path d="M0 0 C0.33 0 0.66 0 1 0 C1.84640388 3.07265946 2.28073512 5.81341007 2 9 C-0.36729335 13.15154412 -3.44504496 16.148477 -7.625 18.4375 C-10.07691134 19.01821584 -12.5160825 19.57418557 -15 20 C-15.33 19.01 -15.66 18.02 -16 17 C-14.98679687 16.85304688 -14.98679687 16.85304688 -13.953125 16.703125 C-10.15889036 16.06709723 -6.85438764 15.4912729 -3.5 13.5625 C-1.05158429 9.37978983 -0.62335527 4.75718494 0 0 Z " fill="#2A9CC8" transform="translate(99,342)"/>
<path d="M0 0 C0.66 0.33 1.32 0.66 2 1 C1.34 2.32 0.68 3.64 0 5 C-0.66 5 -1.32 5 -2 5 C-2.268125 5.639375 -2.53625 6.27875 -2.8125 6.9375 C-4 9 -4 9 -7 10 C-7 10.66 -7 11.32 -7 12 C-8.32 12.33 -9.64 12.66 -11 13 C-8.52241061 7.42542386 -4.84184017 3.63138013 0 0 Z " fill="#5B9648" transform="translate(277,170)"/>
<path d="M0 0 C2.78712092 1.39356046 3.26463329 3.16505673 4.625 5.9375 C5.07101563 6.83339844 5.51703125 7.72929687 5.9765625 8.65234375 C7 11 7 11 7 13 C7.66 13 8.32 13 9 13 C12.125 19.625 12.125 19.625 11 23 C9.72710095 20.79283537 8.4566395 18.58432515 7.1875 16.375 C6.83107422 15.75753906 6.47464844 15.14007813 6.10742188 14.50390625 C0 3.85794151 0 3.85794151 0 0 Z " fill="#598A3C" transform="translate(145,153)"/>
<path d="M0 0 C-2.6072902 2.6072902 -5.5359257 3.48026787 -8.9375 4.6875 C-9.88786133 5.04424805 -9.88786133 5.04424805 -10.85742188 5.40820312 C-15.63553144 7.12148952 -15.63553144 7.12148952 -19 6 C-18.34 6 -17.68 6 -17 6 C-17 5.34 -17 4.68 -17 4 C-5.47835991 -0.59225513 -5.47835991 -0.59225513 0 0 Z " fill="#2D88AB" transform="translate(44,279)"/>
<path d="M0 0 C0.33 1.32 0.66 2.64 1 4 C0.01 4.495 0.01 4.495 -1 5 C-1.33 4.34 -1.66 3.68 -2 3 C-3.093125 3.061875 -4.18625 3.12375 -5.3125 3.1875 C-9 3 -9 3 -10.9375 1.5 C-11.4634375 0.7575 -11.4634375 0.7575 -12 0 C-7.74433453 -1.16063604 -4.3164922 -0.76173392 0 0 Z " fill="#166A8E" transform="translate(440,279)"/>
<path d="M0 0 C0 0.66 0 1.32 0 2 C-1.43640171 2.19573608 -2.87419504 2.38127816 -4.3125 2.5625 C-5.11300781 2.66691406 -5.91351563 2.77132813 -6.73828125 2.87890625 C-9 3 -9 3 -12 2 C-12 2.66 -12 3.32 -12 4 C-15.81489674 5.46726798 -18.29011622 4.43336419 -22 3 C-22 2.67 -22 2.34 -22 2 C-19.08362234 1.66395648 -16.16694348 1.33106414 -13.25 1 C-12.0125 0.85691406 -12.0125 0.85691406 -10.75 0.7109375 C-9.55117187 0.57558594 -9.55117187 0.57558594 -8.328125 0.4375 C-7.22839355 0.31181641 -7.22839355 0.31181641 -6.10644531 0.18359375 C-4.07773478 0.00677521 -2.03640154 0 0 0 Z " fill="#309ECA" transform="translate(114,266)"/>
<path d="M0 0 C1.2684375 0.433125 1.2684375 0.433125 2.5625 0.875 C6.02361041 2.00772704 9.49372557 3.01824316 13 4 C12.67 4.99 12.34 5.98 12 7 C8.01265823 8.32911392 8.01265823 8.32911392 5 7 C0 1.98571429 0 1.98571429 0 0 Z " fill="#2AA2AF" transform="translate(216,280)"/>
<path d="M0 0 C0.66 0 1.32 0 2 0 C4.00865708 6.50422293 5.38614349 12.1781317 5 19 C2.93421237 15.90131855 2.25308642 13.65023694 1.375 10.0625 C1.11460937 9.02222656 0.85421875 7.98195312 0.5859375 6.91015625 C0 4 0 4 0 0 Z " fill="#53893A" transform="translate(217,179)"/>
<path d="M0 0 C2.67456717 0.37792797 3.80611814 0.79766916 5.703125 2.77734375 C6.21359375 3.49019531 6.7240625 4.20304687 7.25 4.9375 C7.77078125 5.64777344 8.2915625 6.35804687 8.828125 7.08984375 C10 9 10 9 10 11 C10.66 11 11.32 11 12 11 C12 12.65 12 14.3 12 16 C11.42765625 15.28328125 10.8553125 14.5665625 10.265625 13.828125 C8.80198715 12.0011012 7.33356197 10.17789762 5.859375 8.359375 C5.16328125 7.49828125 4.4671875 6.6371875 3.75 5.75 C3.04359375 4.87859375 2.3371875 4.0071875 1.609375 3.109375 C0 1 0 1 0 0 Z " fill="#5C913D" transform="translate(104,65)"/>
<path d="M0 0 C3.00085712 1.50042856 3.28257944 3.74296705 4.5 6.8125 C5.88623585 10.28231596 7.26758381 13.68755608 9 17 C8.01 17 7.02 17 6 17 C4.99063464 14.921188 3.99282154 12.8367638 3 10.75 C2.443125 9.58984375 1.88625 8.4296875 1.3125 7.234375 C0 4 0 4 0 0 Z " fill="#268AAE" transform="translate(16,300)"/>
<path d="M0 0 C3.14839906 -0.34982212 4.62023779 -0.24633224 7.3125 1.5 C9.83210805 5.23275267 9.49582992 7.5375307 9 12 C7.5 14 7.5 14 6 15 C5.01 14.67 4.02 14.34 3 14 C3.66 14 4.32 14 5 14 C6.73745313 11.34271875 7.00831972 10.10399645 6.75 6.875 C6.23116835 3.89402202 6.23116835 3.89402202 4 2 C2.68252676 1.30251417 1.35085807 0.63040043 0 0 Z " fill="#14769F" transform="translate(100,368)"/>
<path d="M0 0 C3.19249477 2.96647745 5.4592987 6.04963636 7.75 9.75 C8.36359375 10.73484375 8.9771875 11.7196875 9.609375 12.734375 C10.29773438 13.85585938 10.29773438 13.85585938 11 15 C7.19030112 13.50814889 5.54171208 11.39723489 3.25 8.0625 C2.63640625 7.18722656 2.0228125 6.31195313 1.390625 5.41015625 C0 3 0 3 0 0 Z " fill="#207CA4" transform="translate(39,344)"/>
<path d="M0 0 C0.33 0.66 0.66 1.32 1 2 C4.02934491 2.65772428 4.02934491 2.65772428 7 3 C5 5 5 5 2.1875 5.375 C-1.66305455 4.92199358 -3.21801758 3.6183364 -6 1 C-4.02 0.67 -2.04 0.34 0 0 Z " fill="#419A67" transform="translate(224,279)"/>
<path d="M0 0 C0.33 0 0.66 0 1 0 C1.66 3.96 2.32 7.92 3 12 C4.32 11.67 5.64 11.34 7 11 C6.34 12.32 5.68 13.64 5 15 C3.68 14.67 2.36 14.34 1 14 C-0.20568053 9.32798795 -0.09382426 4.78503708 0 0 Z " fill="#528C38" transform="translate(226,227)"/>
<path d="M0 0 C3.42771135 3.9173844 8 9.52151811 8 15 C7.34 15 6.68 15 6 15 C3 9.25 3 9.25 3 7 C2.34 7 1.68 7 1 7 C0.67 4.69 0.34 2.38 0 0 Z " fill="#5A8E3F" transform="translate(398,201)"/>
<path d="M0 0 C3.6132946 3.17341525 5.3230578 6.37058591 7.25 10.75 C7.77078125 11.92046875 8.2915625 13.0909375 8.828125 14.296875 C9.21484375 15.18890625 9.6015625 16.0809375 10 17 C9.34 17 8.68 17 8 17 C6.65869239 14.73354942 5.32683766 12.46239903 4 10.1875 C3.42765625 9.22360352 3.42765625 9.22360352 2.84375 8.24023438 C0 3.33984375 0 3.33984375 0 0 Z " fill="#568738" transform="translate(206,132)"/>
<path d="M0 0 C0.74507813 0.00902344 1.49015625 0.01804688 2.2578125 0.02734375 C4.08868059 0.05081642 5.91938238 0.08668475 7.75 0.125 C7.75 0.455 7.75 0.785 7.75 1.125 C6.75419922 1.21587891 6.75419922 1.21587891 5.73828125 1.30859375 C0.30425828 1.80453173 0.30425828 1.80453173 -5.0625 2.75 C-7.69091261 3.20058502 -9.6858265 2.7843589 -12.25 2.125 C-8.4084024 -0.44280471 -4.4360825 -0.10188882 0 0 Z " fill="#4C8833" transform="translate(328.25,154.875)"/>
<path d="M0 0 C1.32 0.66 2.64 1.32 4 2 C3.57847656 2.55429688 3.15695313 3.10859375 2.72265625 3.6796875 C2.17480469 4.40414062 1.62695312 5.12859375 1.0625 5.875 C0.51722656 6.59429687 -0.02804688 7.31359375 -0.58984375 8.0546875 C-2.03964624 9.94357079 -2.03964624 9.94357079 -3 12 C-3.66 12 -4.32 12 -5 12 C-3.41037341 7.96479403 -1.71767682 3.98188718 0 0 Z " fill="#528A3B" transform="translate(239,236)"/>
<path d="M0 0 C0.66 0 1.32 0 2 0 C5.44419134 9.41002278 5.44419134 9.41002278 5 14 C1.34133706 9.67612562 0 5.65076098 0 0 Z " fill="#588D3A" transform="translate(212,164)"/>
<path d="M0 0 C3.3502463 3.81234923 5.16974789 7.33285711 7 12 C6.01 12 5.02 12 4 12 C3.67 11.01 3.34 10.02 3 9 C2.34 8.67 1.68 8.34 1 8 C0.40644386 5.35139573 0.25790731 2.70802678 0 0 Z " fill="#5A8F3F" transform="translate(193,122)"/>
<path d="M0 0 C-4.625 2.125 -4.625 2.125 -8 1 C-3.375 -1.125 -3.375 -1.125 0 0 Z M-8 2 C-8 2.66 -8 3.32 -8 4 C-10.90600261 5.25664978 -12.79604584 6 -16 6 C-16 5.34 -16 4.68 -16 4 C-13.09399739 2.74335022 -11.20395416 2 -8 2 Z " fill="#2F9FCD" transform="translate(36,284)"/>
<path d="M0 0 C0.99 0.33 1.98 0.66 3 1 C3 1.99 3 2.98 3 4 C2.01 4 1.02 4 0 4 C0 6.64 0 9.28 0 12 C-1.5625 10.8125 -1.5625 10.8125 -3 9 C-2.73865785 5.602552 -1.64391844 2.95905318 0 0 Z " fill="#599543" transform="translate(263,186)"/>
<path d="M0 0 C4.85963179 0.60745397 8.7405518 2.72758967 13 5 C13 5.66 13 6.32 13 7 C8.1725201 5.58707905 4.2837641 3.57025846 0 1 C0 0.67 0 0.34 0 0 Z " fill="#59833D" transform="translate(168,187)"/>
<path d="M0 0 C0.33 0.66 0.66 1.32 1 2 C0.34 2 -0.32 2 -1 2 C-1 2.66 -1 3.32 -1 4 C-3.64 4 -6.28 4 -9 4 C-7.68 3.34 -6.36 2.68 -5 2 C-5.33 1.34 -5.66 0.68 -6 0 C-3 -1 -3 -1 0 0 Z " fill="#5C9848" transform="translate(298,201)"/>
<path d="M0 0 C0.33 0 0.66 0 1 0 C1.19294408 4.82360189 0.75747614 8.49646738 -1 13 C-1.66 13 -2.32 13 -3 13 C-2.68817931 11.58318366 -2.37551263 10.16655349 -2.0625 8.75 C-1.88847656 7.96109375 -1.71445313 7.1721875 -1.53515625 6.359375 C-1.052444 4.23121297 -0.53836822 2.11467158 0 0 Z " fill="#548836" transform="translate(243,155)"/>
<path d="M0 0 C4.43458973 1.3937282 6.87378374 3.60582235 10 7 C6.65580848 7 5.93159679 6.52480606 3.3125 4.625 C2.68988281 4.18414062 2.06726563 3.74328125 1.42578125 3.2890625 C0.95527344 2.86367188 0.48476562 2.43828125 0 2 C0 1.34 0 0.68 0 0 Z " fill="#619341" transform="translate(196,56)"/>
<path d="M0 0 C0.33 0.66 0.66 1.32 1 2 C-3.455 2.495 -3.455 2.495 -8 3 C-7.67 2.01 -7.34 1.02 -7 0 C-3.88407501 -1.03864166 -2.9737344 -1.09036928 0 0 Z " fill="#096084" transform="translate(251,279)"/>
<path d="M0 0 C1 3 1 3 0.00390625 5.26171875 C-0.47175781 6.06222656 -0.94742188 6.86273438 -1.4375 7.6875 C-2.14712891 8.89986328 -2.14712891 8.89986328 -2.87109375 10.13671875 C-3.24363281 10.75160156 -3.61617187 11.36648437 -4 12 C-4.66 12 -5.32 12 -6 12 C-4.43358249 7.69235185 -2.31663844 3.93828536 0 0 Z " fill="#568639" transform="translate(239,169)"/>
<path d="M0 0 C0.99 0.33 1.98 0.66 3 1 C3.33 3.31 3.66 5.62 4 8 C3.01 8 2.02 8 1 8 C-0.35439668 5.29120665 -0.06501451 2.99066732 0 0 Z " fill="#2C9DCA" transform="translate(15,290)"/>
<path d="M0 0 C0 0.66 0 1.32 0 2 C-2.31 2.66 -4.62 3.32 -7 4 C-6.67 2.68 -6.34 1.36 -6 0 C-2.25 -1.125 -2.25 -1.125 0 0 Z " fill="#5B9643" transform="translate(281,195)"/>
<path d="M0 0 C3 1 3 1 4.1875 2.5625 C5.37040794 6.11122383 5.12443279 9.26701621 5 13 C4.67 13 4.34 13 4 13 C3.896875 11.9275 3.79375 10.855 3.6875 9.75 C3.01397764 6.07624166 2.34125011 4.74842404 0 2 C0 1.34 0 0.68 0 0 Z " fill="#12749D" transform="translate(94,337)"/>
<path d="M0 0 C3.33537489 1.11179163 4.63707344 2.47411298 7 5 C6.67 5.99 6.34 6.98 6 8 C4.99403703 7.0479279 3.99538437 6.08812654 3 5.125 C2.443125 4.59132813 1.88625 4.05765625 1.3125 3.5078125 C0 2 0 2 0 0 Z " fill="#57843C" transform="translate(89,48)"/>
<path d="M0 0 C3.37462715 0.54723683 5.08235 1.0549 8 3 C7.67 3.66 7.34 4.32 7 5 C6.01 5 5.02 5 4 5 C3.67 4.34 3.34 3.68 3 3 C2.01 2.67 1.02 2.34 0 2 C0 1.34 0 0.68 0 0 Z " fill="#5F9940" transform="translate(171,45)"/>
<path d="M0 0 C0 0.66 0 1.32 0 2 C-2.64 2.66 -5.28 3.32 -8 4 C-8.33 3.34 -8.66 2.68 -9 2 C-5.62902617 0.50178941 -3.79557881 0 0 0 Z " fill="#63924D" transform="translate(100,45)"/>
<path d="M0 0 C0.66 0 1.32 0 2 0 C3.09898702 3.29696105 2.87124444 4.40494903 2.0625 7.6875 C1.86785156 8.49574219 1.67320312 9.30398437 1.47265625 10.13671875 C1.23869141 11.05904297 1.23869141 11.05904297 1 12 C0.67 12 0.34 12 0 12 C0 8.04 0 4.08 0 0 Z " fill="#5C9047" transform="translate(215,196)"/>
<path d="M0 0 C3.36720387 1.39332574 4.9859524 2.9789286 7 6 C6.67 6.66 6.34 7.32 6 8 C4.62437146 6.71034824 3.29233607 5.37310707 2 4 C2 3.34 2 2.68 2 2 C1.34 2 0.68 2 0 2 C0 1.34 0 0.68 0 0 Z " fill="#598B3E" transform="translate(389,190)"/>
<path d="M0 0 C4.29 0 8.58 0 13 0 C11.515 1.485 11.515 1.485 10 3 C7.51953125 2.85546875 7.51953125 2.85546875 4.8125 2.1875 C3.91144531 1.97480469 3.01039063 1.76210938 2.08203125 1.54296875 C1.39496094 1.36378906 0.70789063 1.18460937 0 1 C0 0.67 0 0.34 0 0 Z " fill="#1C6D93" transform="translate(258,275)"/>
<path d="M0 0 C2.15377564 2.62198774 3.40072174 4.64404172 4 8 C3.01 7.67 2.02 7.34 1 7 C0.67 4.69 0.34 2.38 0 0 Z " fill="#5B9143" transform="translate(202,139)"/>
<path d="M0 0 C-1.65 1.32 -3.3 2.64 -5 4 C-5.99 3.01 -6.98 2.02 -8 1 C-2.25 -1.125 -2.25 -1.125 0 0 Z " fill="#579B45" transform="translate(99,48)"/>
</svg>
